<?xml version="1.0" encoding="UTF-8" standalone="no"?>
<svg width="135.46666mm" height="135.46666mm" viewBox="0 0 135.46666 135.46666" version="1.1" xmlns="http://www.w3.org/2000/svg" xmlns:svg="http://www.w3.org/2000/svg">
   <g transform="translate(19.43129,-35.634632)">
      <path style="fill:#000000;stroke-width:0.135702" d="m 35.601444,157.84958 c -13.247768,-0.35695 -22.530125,-2.70083 -29.7503251,-7.51222 -3.0313981,-2.02006 -5.21595345,-3.91373 -7.3755834,-6.3935 l -1.185939,-1.36173 0.3272645,-0.31252 c 0.1799985,-0.17189 4.0180027,-3.35178 8.5288976,-7.06645 l 8.2016304,-6.75393 0.549873,0.66342 c 3.375619,4.07275 7.797306,6.87311 13.656751,8.64919 3.997436,1.21169 8.18343,1.73099 13.968235,1.73291 6.16464,0.002 10.462781,-0.68915 14.866018,-2.3906 3.134446,-1.21116 5.376106,-2.59329 7.412521,-4.57028 3.082991,-2.99303 4.747809,-7.1489 4.553237,-11.36622 -0.110682,-2.39906 -0.767486,-3.97491 -2.275214,-5.45889 -1.580414,-1.55552 -4.323662,-2.70248 -7.557884,-3.15994 -0.803439,-0.11369 -5.613276,-0.57351 -10.688538,-1.02192 -9.98618,-0.88232 -10.879749,-0.97471 -13.230944,-1.36792 -2.975616,-0.49764 -6.586775,-1.52955 -8.888483,-2.53995 -5.500161,-2.41445 -9.306197,-6.293 -10.919589,-11.127593 -0.745064,-2.232625 -0.971966,-3.661664 -1.049797,-6.611742 -0.07897,-2.992968 0.08805,-4.880002 0.70989,-8.020977 1.954407,-9.871849 7.768298,-18.402294 16.545524,-24.276456 9.04767,-6.055155 20.494423,-9.079753 32.914098,-8.696953 7.145055,0.220226 11.849128,0.808521 16.894899,2.112886 6.759645,1.747415 12.412953,4.697777 16.415264,8.566835 1.07303,1.0373 1.194875,1.202358 1.032264,1.398297 -0.101406,0.122193 -2.572476,2.21884 -5.491262,4.659221 -2.918778,2.44038 -6.48993,5.427762 -7.935894,6.638627 l -2.629024,2.201567 -1.102778,-0.955597 c -5.400339,-4.679579 -13.70492,-6.972951 -24.354615,-6.725701 -5.142338,0.119386 -8.485076,0.808377 -12.092683,2.492492 -4.319473,2.01643 -7.335751,5.198 -8.729565,9.207946 -2.107612,6.063525 -0.494194,10.446844 4.60163,12.501643 2.701425,1.089301 4.302587,1.340001 13.756916,2.153957 12.272188,1.056563 14.342584,1.31332 18.184071,2.255109 3.812174,0.934597 7.656309,2.683474 10.313359,4.692029 1.136097,0.85881 3.129406,2.94569 3.924344,4.10854 2.172452,3.1779 3.208046,6.56749 3.359196,10.99496 0.259765,7.60903 -2.095899,15.77822 -6.433099,22.30931 -3.287946,4.95109 -8.40922,9.6455 -13.809992,12.65897 -2.284575,1.27472 -2.578231,1.42183 -4.867587,2.43842 -8.424366,3.74087 -18.942067,5.56206 -30.347087,5.25476 z" />
      <rect style="fill:none;stroke-width:0.264583" width="135.46666" height="135.46666" x="-19.43129" y="35.634632" />
   </g>
</svg>